<?xml version="1.0" encoding="UTF-8"?>
<svg width="512" height="512" viewBox="0 0 512 512" xmlns="http://www.w3.org/2000/svg">
  <defs>
    <linearGradient id="grad1" x1="0%" y1="0%" x2="100%" y2="100%">
      <stop offset="0%" style="stop-color:#60a5fa;stop-opacity:1" />
      <stop offset="100%" style="stop-color:#a78bfa;stop-opacity:1" />
    </linearGradient>
    <linearGradient id="grad2" x1="0%" y1="0%" x2="100%" y2="100%">
      <stop offset="0%" style="stop-color:#34d399;stop-opacity:1" />
      <stop offset="100%" style="stop-color:#60a5fa;stop-opacity:1" />
    </linearGradient>
  </defs>
  
  <!-- Background -->
  <rect width="512" height="512" fill="#0a0a0f" rx="64"/>
  
  <!-- Neural network nodes -->
  <circle cx="256" cy="256" r="48" fill="url(#grad1)" opacity="0.9"/>
  <circle cx="180" cy="180" r="24" fill="url(#grad1)" opacity="0.7"/>
  <circle cx="332" cy="180" r="24" fill="url(#grad1)" opacity="0.7"/>
  <circle cx="180" cy="332" r="24" fill="url(#grad1)" opacity="0.7"/>
  <circle cx="332" cy="332" r="24" fill="url(#grad1)" opacity="0.7"/>
  <circle cx="128" cy="256" r="16" fill="url(#grad2)" opacity="0.6"/>
  <circle cx="384" cy="256" r="16" fill="url(#grad2)" opacity="0.6"/>
  <circle cx="256" cy="128" r="16" fill="url(#grad2)" opacity="0.6"/>
  <circle cx="256" cy="384" r="16" fill="url(#grad2)" opacity="0.6"/>
  
  <!-- Connections -->
  <line x1="256" y1="256" x2="180" y2="180" stroke="url(#grad1)" stroke-width="3" opacity="0.4"/>
  <line x1="256" y1="256" x2="332" y2="180" stroke="url(#grad1)" stroke-width="3" opacity="0.4"/>
  <line x1="256" y1="256" x2="180" y2="332" stroke="url(#grad1)" stroke-width="3" opacity="0.4"/>
  <line x1="256" y1="256" x2="332" y2="332" stroke="url(#grad1)" stroke-width="3" opacity="0.4"/>
  <line x1="256" y1="256" x2="128" y2="256" stroke="url(#grad2)" stroke-width="2" opacity="0.3"/>
  <line x1="256" y1="256" x2="384" y2="256" stroke="url(#grad2)" stroke-width="2" opacity="0.3"/>
  <line x1="256" y1="256" x2="256" y2="128" stroke="url(#grad2)" stroke-width="2" opacity="0.3"/>
  <line x1="256" y1="256" x2="256" y2="384" stroke="url(#grad2)" stroke-width="2" opacity="0.3"/>
  
  <!-- Center glow -->
  <circle cx="256" cy="256" r="64" fill="url(#grad1)" opacity="0.2"/>
  <circle cx="256" cy="256" r="80" fill="none" stroke="url(#grad1)" stroke-width="2" opacity="0.3"/>
  
  <!-- Text -->
  <text x="256" y="440" font-family="Arial, sans-serif" font-size="72" font-weight="bold" fill="url(#grad1)" text-anchor="middle">NEXUS</text>
</svg>